<?xml version="1.0" encoding="UTF-8" standalone="no"?><!DOCTYPE svg PUBLIC "-//W3C//DTD SVG 1.1//EN" "http://www.w3.org/Graphics/SVG/1.1/DTD/svg11.dtd"><svg width="100%" height="100%" viewBox="0 0 794 284" version="1.1" xmlns="http://www.w3.org/2000/svg" xmlns:xlink="http://www.w3.org/1999/xlink" xml:space="preserve" xmlns:serif="http://www.serif.com/" style="fill-rule:evenodd;clip-rule:evenodd;stroke-linecap:round;stroke-linejoin:round;stroke-miterlimit:1.5;"><path d="M787.581,25.006c-0,-10.546 -8.562,-19.107 -19.107,-19.107l-744.043,-0c-10.545,-0 -19.107,8.561 -19.107,19.107l0,234.74c0,10.546 8.562,19.107 19.107,19.107l744.043,0c10.545,0 19.107,-8.561 19.107,-19.107l-0,-234.74Z" style="fill:#fff;stroke:#000;stroke-width:1.5px;"/><path d="M769.278,39.266c-0,-9.192 -7.463,-16.656 -16.656,-16.656l-712.339,0c-9.193,0 -16.656,7.464 -16.656,16.656l0,204.628c0,9.193 7.463,16.656 16.656,16.656l712.339,0c9.193,0 16.656,-7.463 16.656,-16.656l-0,-204.628Z" style="fill:#fff;stroke:#000;stroke-width:1.5px;"/><path d="M212.746,42.651c0,-4.832 -3.922,-8.754 -8.754,-8.754l-32.627,0c-4.831,0 -8.753,3.922 -8.753,8.754c-0,4.831 3.922,8.753 8.753,8.753l32.627,0c4.832,0 8.754,-3.922 8.754,-8.753Z" style="fill:#fff;stroke:#000;stroke-width:1.5px;"/><path d="M641.662,42.663c-0,-4.831 -3.923,-8.753 -8.754,-8.753l-32.627,-0c-4.831,-0 -8.754,3.922 -8.754,8.753c0,4.832 3.923,8.754 8.754,8.754l32.627,-0c4.831,-0 8.754,-3.922 8.754,-8.754Z" style="fill:#fff;stroke:#000;stroke-width:1.5px;"/></svg>