<svg width="785" height="276" viewBox="0 0 785 276" fill="none" xmlns="http://www.w3.org/2000/svg">
<path fill-rule="evenodd" clip-rule="evenodd" d="M783.581 21.0064C783.581 10.4604 775.019 1.89941 764.474 1.89941H20.4312C9.88622 1.89941 1.32422 10.4604 1.32422 21.0064V255.746C1.32422 266.292 9.88622 274.853 20.4312 274.853H764.474C775.019 274.853 783.581 266.292 783.581 255.746V21.0064Z" fill="white" stroke="black" stroke-opacity="0.8" stroke-width="2" stroke-miterlimit="1.5" stroke-linecap="round" stroke-linejoin="round"/>
<path fill-rule="evenodd" clip-rule="evenodd" d="M765.28 35.2663C765.28 26.0743 757.817 18.6104 748.624 18.6104H36.2849C27.0919 18.6104 19.6289 26.0743 19.6289 35.2663V239.894C19.6289 249.087 27.0919 256.55 36.2849 256.55H748.624C757.817 256.55 765.28 249.087 765.28 239.894V35.2663Z" stroke="#C6C6C6" stroke-width="3" stroke-miterlimit="1.5" stroke-linecap="round" stroke-linejoin="round"/>
<path fill-rule="evenodd" clip-rule="evenodd" d="M208.747 38.6515C208.747 33.8195 204.825 29.8975 199.993 29.8975H167.366C162.535 29.8975 158.613 33.8195 158.613 38.6515C158.613 43.4825 162.535 47.4045 167.366 47.4045H199.993C204.825 47.4045 208.747 43.4825 208.747 38.6515Z" fill="#0F0F0F"/>
<path fill-rule="evenodd" clip-rule="evenodd" d="M637.662 38.6632C637.662 33.8322 633.739 29.9102 628.908 29.9102H596.281C591.45 29.9102 587.527 33.8322 587.527 38.6632C587.527 43.4952 591.45 47.4172 596.281 47.4172H628.908C633.739 47.4172 637.662 43.4952 637.662 38.6632Z" fill="#0F0F0F"/>
</svg>
